<svg xmlns:svg="http://www.w3.org/2000/svg" xmlns="http://www.w3.org/2000/svg" xmlns:xlink="http://www.w3.org/1999/xlink" version="1.1" width="507" height="350" id="svg2"><style>.s0{stop-color:#000000;stop-opacity:1;}.s1{stop-color:#c8c5c4;stop-opacity:0.39;}.s2{stop-color:#c8c5c4;stop-opacity:0;}.s3{stop-color:#c8c5c4;stop-opacity:1;}.s4{stop-color:#ffffff;stop-opacity:1;}.s5{stop-color:#81ccfb;stop-opacity:1;}</style><defs id="defs4"><linearGradient id="linearGradient3981"><stop id="stop3987" offset="0" style="stop-color:#313131;stop-opacity:1"/><stop id="stop3989" offset="1" style="stop-color:#b8b5b3;stop-opacity:0"/></linearGradient><linearGradient id="linearGradient3947"><stop id="stop3949" offset="0" class="s0"/><stop id="stop3975" offset="0.04" class="s0"/><stop id="stop3973" offset="0.09" style="stop-color:#434343;stop-opacity:1"/><stop id="stop3971" offset="0.18" style="stop-color:#686868;stop-opacity:1"/><stop id="stop3969" offset="0.26" style="stop-color:#030303;stop-opacity:1"/><stop id="stop3967" offset="0.33" style="stop-color:#6a6a6b;stop-opacity:1"/><stop id="stop3965" offset="0.41" style="stop-color:#828283;stop-opacity:1"/><stop id="stop3963" offset="0.49" style="stop-color:#1d1d21;stop-opacity:1"/><stop id="stop3961" offset="0.57" style="stop-color:#8f8f9e;stop-opacity:1"/><stop id="stop3959" offset="0.68" style="stop-color:#a1a1aa;stop-opacity:1"/><stop id="stop3957" offset="0.74" style="stop-color:#62616b;stop-opacity:1"/><stop id="stop3955" offset="0.79" style="stop-color:#9e9ca3;stop-opacity:1"/><stop id="stop3953" offset="0.92" style="stop-color:#bababe;stop-opacity:0.82"/><stop id="stop3951" offset="1" style="stop-color:#1a1923;stop-opacity:1"/></linearGradient><linearGradient id="linearGradient3925"><stop id="stop3927" offset="0" class="s1"/><stop id="stop3929" offset="0.17" class="s2"/><stop id="stop3931" offset="0.5" class="s2"/><stop id="stop3933" offset="1" class="s1"/></linearGradient><linearGradient id="linearGradient3913"><stop id="stop3915" offset="0" class="s1"/><stop id="stop3917" offset="0.17" class="s2"/><stop id="stop3919" offset="0.53" class="s2"/><stop id="stop3921" offset="1" class="s1"/></linearGradient><linearGradient id="linearGradient3876"><stop id="stop3878" offset="0" class="s0"/><stop id="stop3880" offset="1" class="s0"/></linearGradient><linearGradient id="linearGradient6027"><stop id="stop6029" offset="0" class="s1"/><stop id="stop6031" offset="0.17" class="s2"/><stop id="stop6033" offset="0.8" class="s2"/><stop id="stop6035" offset="1" class="s1"/></linearGradient><linearGradient id="linearGradient5543"><stop id="stop5545" offset="0" style="stop-color:#4e5766;stop-opacity:1"/><stop id="stop5547" offset="0.45" style="stop-color:#1c202a;stop-opacity:1"/><stop id="stop5549" offset="0.75" style="stop-color:#7d8a9c;stop-opacity:1"/><stop id="stop5551" offset="1" style="stop-color:#b0b6b7;stop-opacity:1"/></linearGradient><linearGradient id="linearGradient3763"><stop id="stop3765" offset="0" style="stop-color:#111317;stop-opacity:1"/><stop id="stop3767" offset="0.51" style="stop-color:#373737;stop-opacity:1"/><stop id="stop3769" offset="0.71" style="stop-color:#3d3d3d;stop-opacity:1"/><stop id="stop3771" offset="1" style="stop-color:#303030;stop-opacity:1"/></linearGradient><linearGradient id="linearGradient3639"><stop id="stop3645" offset="0" class="s3"/><stop id="stop3649" offset="0.5" class="s2"/><stop id="stop3653" offset="0.75" class="s2"/><stop id="stop3647" offset="1" class="s3"/></linearGradient><linearGradient id="linearGradient3622"><stop id="stop3624" offset="0" style="stop-color:#23272e;stop-opacity:1"/><stop id="stop3633" offset="0.51" style="stop-color:#f4faff;stop-opacity:1"/><stop id="stop3631" offset="0.71" class="s4"/><stop id="stop3626" offset="1" style="stop-color:#97a3b9;stop-opacity:1"/></linearGradient><linearGradient id="linearGradient3628"><stop id="stop3634" offset="0" style="stop-color:#81ccfb;stop-opacity:0"/><stop id="stop3636" offset="1" class="s5"/></linearGradient><linearGradient id="linearGradient3608"><stop id="stop3610" offset="0" class="s5"/><stop id="stop3618" offset="0.3" class="s4"/><stop id="stop3616" offset="0.7" class="s4"/><stop id="stop3612" offset="1" class="s5"/></linearGradient><filter x="-0.03" y="-2.26" width="1.06" height="5.52" color-interpolation-filters="sRGB" id="filter3655"><feGaussianBlur id="feGaussianBlur3657" stdDeviation="5.65"/></filter><filter x="-0.57" y="-0.57" width="2.15" height="2.15" color-interpolation-filters="sRGB" id="filter6061"><feGaussianBlur id="feGaussianBlur6063" stdDeviation="0.91"/></filter><linearGradient x1="703.94" y1="491.31" x2="703.94" y2="497.31" id="linearGradient4298" xlink:href="#linearGradient3608" gradientUnits="userSpaceOnUse" gradientTransform="matrix(0.85400514,-0.52026457,0.52026457,0.85400514,-141.34425,-407.45001)"/><linearGradient x1="702.67" y1="494.31" x2="705.95" y2="494.31" id="linearGradient4300" xlink:href="#linearGradient3628" gradientUnits="userSpaceOnUse" gradientTransform="matrix(0.85400514,-0.52026457,0.52026457,0.85400514,-141.34425,-407.45001)"/><linearGradient x1="212.06" y1="502.11" x2="212.06" y2="487.83" id="linearGradient4302" xlink:href="#linearGradient3947" gradientUnits="userSpaceOnUse" gradientTransform="matrix(0.85400514,-0.52026457,0.52026457,0.85400514,-141.68568,-408.01046)"/><linearGradient x1="-254.56" y1="502.11" x2="-254.56" y2="487.83" id="linearGradient4304" xlink:href="#linearGradient3622" gradientUnits="userSpaceOnUse" gradientTransform="matrix(1.4419988,0,0,0.73483495,17.326894,-290.90878)"/><radialGradient cx="230.35" cy="494.97" r="6.5" fx="230.35" fy="494.97" id="radialGradient4306" xlink:href="#linearGradient3876" gradientUnits="userSpaceOnUse" gradientTransform="matrix(1,0,0,1.0988401,91.273087,-471.07986)"/><linearGradient x1="-254.56" y1="502.11" x2="-254.56" y2="487.83" id="linearGradient4316" xlink:href="#linearGradient3763" gradientUnits="userSpaceOnUse" gradientTransform="matrix(0.57225925,0,0,0.15528547,-198.51642,-156.03064)"/><linearGradient x1="223.85" y1="502.11" x2="223.85" y2="487.83" id="linearGradient4318" xlink:href="#linearGradient3913" gradientUnits="userSpaceOnUse" gradientTransform="translate(91.273087,-422.15708)"/><linearGradient x1="223.85" y1="502.11" x2="223.85" y2="487.83" id="linearGradient4320" xlink:href="#linearGradient3925" gradientUnits="userSpaceOnUse" gradientTransform="matrix(1.5922153,-0.96998621,0.52026457,0.85400514,-280.70228,-323.3208)"/><linearGradient x1="183.78" y1="487.83" x2="192.95" y2="487.83" id="linearGradient4322" xlink:href="#linearGradient3981" gradientUnits="userSpaceOnUse" gradientTransform="matrix(0.85400514,-0.52026457,0.52026457,0.85400514,-141.68568,-408.01046)"/><linearGradient x1="213.53" y1="501.94" x2="213.53" y2="488" id="linearGradient4324" xlink:href="#linearGradient3622" gradientUnits="userSpaceOnUse"/><linearGradient x1="212.06" y1="488" x2="215" y2="488" id="linearGradient4326" xlink:href="#linearGradient3639" gradientUnits="userSpaceOnUse"/><linearGradient x1="-254.56" y1="502.11" x2="-254.56" y2="487.83" id="linearGradient4328" xlink:href="#linearGradient5543" gradientUnits="userSpaceOnUse" gradientTransform="matrix(0.07085409,0,0,0.59562332,-228.50002,201.14802)"/><linearGradient x1="-254.56" y1="502.11" x2="-236.85" y2="502.11" id="linearGradient4330" xlink:href="#linearGradient6027" gradientUnits="userSpaceOnUse" gradientTransform="matrix(0.07085409,0,0,0.59562332,-228.50002,201.14802)"/><linearGradient x1="703.94" y1="491.31" x2="703.94" y2="497.31" id="linearGradient4380" xlink:href="#linearGradient3608" gradientUnits="userSpaceOnUse" gradientTransform="matrix(0.85400514,-0.52026457,0.52026457,0.85400514,-141.34425,-407.45001)"/><linearGradient x1="702.67" y1="494.31" x2="705.95" y2="494.31" id="linearGradient4382" xlink:href="#linearGradient3628" gradientUnits="userSpaceOnUse" gradientTransform="matrix(0.85400514,-0.52026457,0.52026457,0.85400514,-141.34425,-407.45001)"/><linearGradient x1="212.06" y1="502.11" x2="212.06" y2="487.83" id="linearGradient4384" xlink:href="#linearGradient3947" gradientUnits="userSpaceOnUse" gradientTransform="matrix(0.85400514,-0.52026457,0.52026457,0.85400514,-141.68568,-408.01046)"/><linearGradient x1="-254.56" y1="502.11" x2="-254.56" y2="487.83" id="linearGradient4386" xlink:href="#linearGradient3622" gradientUnits="userSpaceOnUse" gradientTransform="matrix(1.4419988,0,0,0.73483495,17.326894,-290.90878)"/><radialGradient cx="230.35" cy="494.97" r="6.5" fx="230.35" fy="494.97" id="radialGradient4388" xlink:href="#linearGradient3876" gradientUnits="userSpaceOnUse" gradientTransform="matrix(1,0,0,1.0988401,91.273087,-471.07986)"/><linearGradient x1="213.53" y1="501.94" x2="213.53" y2="488" id="linearGradient4390" xlink:href="#linearGradient3622" gradientUnits="userSpaceOnUse"/><linearGradient x1="212.06" y1="488" x2="215" y2="488" id="linearGradient4392" xlink:href="#linearGradient3639" gradientUnits="userSpaceOnUse"/><linearGradient x1="-254.56" y1="502.11" x2="-254.56" y2="487.83" id="linearGradient4394" xlink:href="#linearGradient5543" gradientUnits="userSpaceOnUse" gradientTransform="matrix(0.07085409,0,0,0.59562332,-228.50002,201.14802)"/><linearGradient x1="-254.56" y1="502.11" x2="-236.85" y2="502.11" id="linearGradient4396" xlink:href="#linearGradient6027" gradientUnits="userSpaceOnUse" gradientTransform="matrix(0.07085409,0,0,0.59562332,-228.50002,201.14802)"/><linearGradient x1="-254.56" y1="502.11" x2="-254.56" y2="487.83" id="linearGradient4398" xlink:href="#linearGradient3763" gradientUnits="userSpaceOnUse" gradientTransform="matrix(0.57225925,0,0,0.15528547,-198.51642,-156.03064)"/><linearGradient x1="223.85" y1="502.11" x2="223.85" y2="487.83" id="linearGradient4400" xlink:href="#linearGradient3913" gradientUnits="userSpaceOnUse" gradientTransform="translate(91.273087,-422.15708)"/><linearGradient x1="223.85" y1="502.11" x2="223.85" y2="487.83" id="linearGradient4402" xlink:href="#linearGradient3925" gradientUnits="userSpaceOnUse" gradientTransform="matrix(1.5922153,-0.96998621,0.52026457,0.85400514,-280.70228,-323.3208)"/><linearGradient x1="183.78" y1="487.83" x2="192.95" y2="487.83" id="linearGradient4404" xlink:href="#linearGradient3981" gradientUnits="userSpaceOnUse" gradientTransform="matrix(0.85400514,-0.52026457,0.52026457,0.85400514,-141.68568,-408.01046)"/><linearGradient x1="213.53" y1="501.94" x2="213.53" y2="488" id="linearGradient3046" xlink:href="#linearGradient3622" gradientUnits="userSpaceOnUse"/><linearGradient x1="212.06" y1="488" x2="215" y2="488" id="linearGradient3048" xlink:href="#linearGradient3639" gradientUnits="userSpaceOnUse"/><linearGradient x1="-254.56" y1="502.11" x2="-254.56" y2="487.83" id="linearGradient3050" xlink:href="#linearGradient5543" gradientUnits="userSpaceOnUse" gradientTransform="matrix(0.07085409,0,0,0.59562332,-228.50002,201.14802)"/><linearGradient x1="-254.56" y1="502.11" x2="-236.85" y2="502.11" id="linearGradient3052" xlink:href="#linearGradient6027" gradientUnits="userSpaceOnUse" gradientTransform="matrix(0.07085409,0,0,0.59562332,-228.50002,201.14802)"/><linearGradient x1="183.78" y1="487.83" x2="192.95" y2="487.83" id="linearGradient3055" xlink:href="#linearGradient3981" gradientUnits="userSpaceOnUse" gradientTransform="matrix(0.85400514,-0.52026457,0.52026457,0.85400514,-141.68568,-408.01046)"/><linearGradient x1="223.85" y1="502.11" x2="223.85" y2="487.83" id="linearGradient3058" xlink:href="#linearGradient3925" gradientUnits="userSpaceOnUse" gradientTransform="matrix(1.5922153,-0.96998621,0.52026457,0.85400514,-280.70228,-323.3208)"/><linearGradient x1="223.85" y1="502.11" x2="223.85" y2="487.83" id="linearGradient3061" xlink:href="#linearGradient3913" gradientUnits="userSpaceOnUse" gradientTransform="translate(91.273085,-422.15708)"/><linearGradient x1="-254.56" y1="502.11" x2="-254.56" y2="487.83" id="linearGradient3065" xlink:href="#linearGradient3763" gradientUnits="userSpaceOnUse" gradientTransform="matrix(0.57225925,0,0,0.15528547,-198.51642,-156.03064)"/><radialGradient cx="230.35" cy="494.97" r="6.5" fx="230.35" fy="494.97" id="radialGradient3080" xlink:href="#linearGradient3876" gradientUnits="userSpaceOnUse" gradientTransform="matrix(1,0,0,1.0988401,91.273085,-471.07986)"/><linearGradient x1="-254.56" y1="502.11" x2="-254.56" y2="487.83" id="linearGradient3083" xlink:href="#linearGradient3622" gradientUnits="userSpaceOnUse" gradientTransform="matrix(1.4419988,0,0,0.73483495,17.326896,-290.90878)"/><linearGradient x1="212.06" y1="502.11" x2="212.06" y2="487.83" id="linearGradient3086" xlink:href="#linearGradient3947" gradientUnits="userSpaceOnUse" gradientTransform="matrix(0.85400514,-0.52026457,0.52026457,0.85400514,-141.68568,-408.01046)"/><linearGradient x1="702.67" y1="494.31" x2="705.95" y2="494.31" id="linearGradient3089" xlink:href="#linearGradient3628" gradientUnits="userSpaceOnUse" gradientTransform="matrix(0.85400514,-0.52026457,0.52026457,0.85400514,-141.34425,-407.45001)"/><linearGradient x1="703.94" y1="491.31" x2="703.94" y2="497.31" id="linearGradient3092" xlink:href="#linearGradient3608" gradientUnits="userSpaceOnUse" gradientTransform="matrix(0.85400514,-0.52026457,0.52026457,0.85400514,-141.34425,-407.45001)"/></defs><g transform="translate(-252.26154,402.12936)" id="layer1"><g transform="translate(24.7835,0)" id="g3675"/><path d="m259.66 481.97c-35.97 0-35.04 26 0 26l432.84 0 11.44 0c0 0 5.72-10 5.75-13 0.03-3-5.75-13-5.75-13l-11.44 0-432.84 0z" transform="matrix(0.8617496,-0.52498254,0.52026457,0.85400514,-143.5915,-406.84943)" id="path3640" style="-inkscape-font-specification:Andale Mono;block-progression:tb;direction:ltr;fill:#00c0ff;filter:url(#filter3655);font-family:Andale Mono;font-size:medium;letter-spacing:normal;line-height:normal;opacity:0.7;text-align:start;text-anchor:start;text-decoration:none;text-indent:0;text-transform:none;word-spacing:normal;writing-mode:lr-tb"/><path d="m336.02-122.96 3.12 5.12 379.42-231.14c0 0 1.69-1.03 0.15-3.61-1.54-2.58-3.28-1.52-3.28-1.52L336.02-122.96z" id="path2830" style="-inkscape-font-specification:Andale Mono;block-progression:tb;direction:ltr;fill:url(#linearGradient3092);font-family:Andale Mono;font-size:medium;letter-spacing:normal;line-height:normal;text-align:start;text-anchor:start;text-decoration:none;text-indent:0;text-transform:none;word-spacing:normal;writing-mode:lr-tb"/><path d="m705.68-348.16 3.12 5.12 9.76-5.94c0 0 1.69-1.03 0.15-3.61-1.54-2.58-3.28-1.52-3.28-1.52l-9.76 5.94z" id="path3620" style="-inkscape-font-specification:Andale Mono;block-progression:tb;direction:ltr;fill:url(#linearGradient3089);font-family:Andale Mono;font-size:medium;letter-spacing:normal;line-height:normal;text-align:start;text-anchor:start;text-decoration:none;text-indent:0;text-transform:none;word-spacing:normal;writing-mode:lr-tb"/><path d="m271.01-88.2c-1.09 0.66-0.28 3.92 1.77 7.3 2.06 3.38 4.57 5.56 5.66 4.9l5.68-3.46c0.05-0.03 0.1-0.08 0.14-0.12 0.02-0.01 0.03-0.02 0.05-0.03 0.09-0.04 0.19-0.08 0.28-0.14l14.06-8.57c1.09-0.66 1.45-2.06 0.79-3.15l-5.04-8.27c-0.66-1.09-2.09-1.43-3.18-0.77l-14.06 8.57c-0.09 0.06-0.17 0.12-0.25 0.19-0.08 0.02-0.16 0.06-0.23 0.1l-5.68 3.46z" id="rect2830" fill="url(#linearGradient3086)"/><rect width="25.54" height="10.5" rx="0" ry="0" x="-349.75" y="67.56" transform="matrix(-0.85400514,0.52026457,0.52026457,0.85400514,0,0)" id="rect3691" fill="url(#linearGradient3083)"/><rect width="13" height="14.29" rx="2.3" ry="2.3" x="315.12" y="65.67" transform="matrix(0.85400514,-0.52026457,0.52026457,0.85400514,0,0)" id="rect2832" fill="url(#radialGradient3080)"/><path d="m331.48-125.04c-1.09 0.66-1.43 2.09-0.77 3.18l5.04 8.27c0.66 1.09 2.07 1.41 3.16 0.75l12.04-7.33c1.09-0.66 1.45-2.06 0.79-3.15l-15.34-4.71-4.91 2.99z" id="rect2837" fill="#000"/><g transform="matrix(0.85400514,-0.52026457,0.52026457,0.85400514,-141.68568,-408.01046)" id="g3655"><path d="m213.53 488c-1.39 0-1.47 1.5-1.47 1.5l0 10.94c0 0 0.08 1.5 1.47 1.5 1.39 0 1.47-1.5 1.47-1.5L215 489.5c0 0-0.08-1.5-1.47-1.5z" id="rect2842" fill="url(#linearGradient3046)"/><path d="m213.53 488c-1.39 0-1.47 1.5-1.47 1.5l0 10.94c0 0 0.08 1.5 1.47 1.5 1.39 0 1.47-1.5 1.47-1.5L215 489.5c0 0-0.08-1.5-1.47-1.5z" id="path3635" fill="url(#linearGradient3048)"/></g><use transform="matrix(-0.45864955,0.88861723,0.88861723,0.45864955,523.11759,-318.68607)" id="use3663" x="0" y="0" width="744.09" height="1052.36" xlink:href="#g3655"/><use transform="translate(5.0172797,-3.0565609)" id="use3667" x="0" y="0" width="744.09" height="1052.36" xlink:href="#g3655"/><use transform="matrix(-0.45864955,0.88861723,0.88861723,0.45864955,528.13487,-321.74263)" id="use3669" x="0" y="0" width="744.09" height="1052.36" xlink:href="#g3655"/><g transform="matrix(0.85400514,-0.52026457,0.52026457,0.85400514,-141.68568,-408.01046)" id="g3747"><rect width="1.25" height="8.51" rx="0" ry="0" x="-246.54" y="491.71" transform="scale(-1,1)" id="rect3715" fill="url(#linearGradient3050)"/><rect width="1.25" height="8.51" rx="0" ry="0" x="-246.54" y="491.71" transform="scale(-1,1)" id="rect5553" fill="url(#linearGradient3052)"/><path d="m247.36 491.22a1.89 1.89 0 1 1-3.79 0 1.89 1.89 0 1 1 3.79 0z" transform="matrix(0.64644661,0,0,0.81143819,87.227656,93.036165)" id="path3729" fill="#ea0017"/><path d="m247.36 491.22a1.89 1.89 0 1 1-3.79 0 1.89 1.89 0 1 1 3.79 0z" transform="matrix(0.80378766,0,0,1.0089372,48.60561,-3.979757)" id="path6039" style="fill:#ea0017;filter:url(#filter6061)"/></g><rect width="10.14" height="2.22" rx="1.11" ry="1.11" x="-344.19" y="-80.28" transform="matrix(-0.85400514,0.52026457,-0.52026457,-0.85400514,0,0)" id="rect3743" fill="url(#linearGradient3065)"/><use transform="translate(3.3428657,-2.0364909)" id="use3751" x="0" y="0" width="744.09" height="1052.36" xlink:href="#g3747"/><rect width="13" height="14.29" rx="2.3" ry="2.3" x="315.12" y="65.67" transform="matrix(0.85400514,-0.52026457,0.52026457,0.85400514,0,0)" id="rect3852" fill="url(#linearGradient3061)"/><path d="m331.49-125.03c-0.14 0.08-0.27 0.17-0.38 0.27-0.33 0.31-0.56 0.72-0.66 1.14-0.07 0.28-0.09 0.59-0.05 0.87 0 0.01 0.02 0.02 0.02 0.03 0.02 0.14 0.03 0.29 0.08 0.43 0 0.01 0.01 0.02 0.02 0.03 0.05 0.13 0.12 0.26 0.2 0.39 0.01 0.01 0.01 0.02 0.02 0.03l5.02 8.25 0.02 0.03c0.25 0.39 0.58 0.69 0.97 0.87 0.01 0.01 0.03 0.01 0.04 0.01 0.13 0.06 0.26 0.09 0.4 0.12 0.14 0.03 0.27 0.07 0.41 0.08 0.01 0 0.02-0.02 0.03-0.02 0.43 0.02 0.88-0.06 1.28-0.3 0.01 0 0.02-0.01 0.03-0.02l12.04-7.33c1.09-0.66 1.45-2.06 0.79-3.15l-15.34-4.7-4.91 2.99z" id="rect3894" fill="url(#linearGradient3058)"/><path d="m271.01-88.2c-1.09 0.66-0.28 3.92 1.77 7.3 2.06 3.38 4.57 5.56 5.66 4.9l13.7-8.35-7.43-12.2-13.7 8.35z" id="path3977" fill="url(#linearGradient3055)"/></g></svg>